G04 #@! TF.FileFunction,Copper,L1,Top,Signal*
%FSLAX46Y46*%
G04 Gerber Fmt 4.6, Leading zero omitted, Abs format (unit mm)*
G04 Created by KiCad (PCBNEW 4.1.0-alpha+201609031632+7111~49~ubuntu14.04.1-product) date Mon Sep  5 16:25:14 2016*
%MOMM*%
%LPD*%
G01*
G04 APERTURE LIST*
%ADD10C,0.100000*%
%ADD11R,2.000000X3.500000*%
%ADD12R,1.200000X0.750000*%
%ADD13R,1.727200X1.727200*%
%ADD14O,1.727200X1.727200*%
%ADD15R,1.800000X0.650000*%
%ADD16R,1.727200X2.032000*%
%ADD17O,1.727200X2.032000*%
%ADD18R,1.800860X0.800100*%
%ADD19R,0.900000X1.200000*%
%ADD20R,1.200000X0.900000*%
%ADD21R,2.032000X2.032000*%
%ADD22O,2.032000X2.032000*%
%ADD23R,0.850900X0.850900*%
%ADD24C,1.600000*%
%ADD25C,0.400000*%
%ADD26C,0.800000*%
%ADD27C,0.600000*%
%ADD28C,1.000000*%
%ADD29C,2.000000*%
%ADD30C,1.500000*%
%ADD31C,0.254000*%
G04 APERTURE END LIST*
D10*
D11*
X103100000Y-100000000D03*
X108100000Y-100000000D03*
D12*
X122250000Y-99900000D03*
X120350000Y-99900000D03*
D13*
X119750000Y-101960000D03*
D14*
X122290000Y-101960000D03*
X119750000Y-104500000D03*
X122290000Y-104500000D03*
X119750000Y-107040000D03*
X122290000Y-107040000D03*
D15*
X112430000Y-103000000D03*
X112430000Y-103950000D03*
X112430000Y-104900000D03*
X115370000Y-104900000D03*
X115370000Y-103000000D03*
X115370000Y-103950000D03*
D12*
X125750000Y-101200000D03*
X127650000Y-101200000D03*
X114850000Y-101800000D03*
X112950000Y-101800000D03*
D16*
X139000000Y-101750000D03*
D17*
X136460000Y-101750000D03*
X133920000Y-101750000D03*
X131380000Y-101750000D03*
D16*
X139040000Y-105000000D03*
D17*
X136500000Y-105000000D03*
X133960000Y-105000000D03*
X131420000Y-105000000D03*
D18*
X103000000Y-104650000D03*
X103000000Y-106550000D03*
X106002280Y-105600000D03*
D19*
X101000000Y-106400000D03*
X101000000Y-104200000D03*
D20*
X105200000Y-103300000D03*
X103000000Y-103300000D03*
D19*
X117100000Y-102700000D03*
X117100000Y-100500000D03*
D20*
X127800000Y-104600000D03*
X125600000Y-104600000D03*
X127800000Y-106400000D03*
X125600000Y-106400000D03*
X125600000Y-102900000D03*
X127800000Y-102900000D03*
D21*
X108000000Y-102760000D03*
D22*
X108000000Y-105300000D03*
D23*
X138473860Y-99500000D03*
X135126140Y-99500000D03*
D24*
X117160098Y-104730773D03*
X124800000Y-104799998D03*
X129400000Y-100900000D03*
X118200000Y-100500000D03*
X133960000Y-103300000D03*
X125000000Y-107200000D03*
X111432443Y-102572608D03*
X101100000Y-98900000D03*
X139000000Y-98800000D03*
D25*
X122290000Y-101960000D02*
X121026399Y-103223601D01*
X121026399Y-103223601D02*
X117623601Y-103223601D01*
X117623601Y-103223601D02*
X117100000Y-102700000D01*
X122290000Y-101960000D02*
X122191458Y-101960000D01*
X117100000Y-102800000D02*
X117100000Y-102700000D01*
D26*
X122290000Y-101960000D02*
X122290000Y-99940000D01*
X122290000Y-99940000D02*
X122250000Y-99900000D01*
D27*
X115370000Y-103000000D02*
X116800000Y-103000000D01*
X116800000Y-103000000D02*
X117100000Y-102700000D01*
D28*
X135500000Y-98600000D02*
X136460000Y-99560000D01*
X136460000Y-99560000D02*
X136460000Y-101750000D01*
X116200000Y-98600000D02*
X135500000Y-98600000D01*
X111200000Y-98600000D02*
X110100000Y-98600000D01*
X116200000Y-98600000D02*
X111200000Y-98600000D01*
X115400000Y-99400000D02*
X116200000Y-98600000D01*
X114748840Y-99400000D02*
X115400000Y-99400000D01*
D27*
X112950000Y-101800000D02*
X112422607Y-101272607D01*
X112422607Y-101272607D02*
X110527393Y-101272607D01*
D28*
X112950000Y-101800000D02*
X112950000Y-101198840D01*
X112950000Y-101198840D02*
X114748840Y-99400000D01*
D26*
X136500000Y-105000000D02*
X136500000Y-106816000D01*
X136500000Y-106816000D02*
X133816000Y-109500000D01*
X133816000Y-109500000D02*
X104749950Y-109500000D01*
X103000000Y-107750050D02*
X103000000Y-106550000D01*
X104749950Y-109500000D02*
X103000000Y-107750050D01*
D29*
X136500000Y-105000000D02*
X136500000Y-101790000D01*
X136500000Y-101790000D02*
X136460000Y-101750000D01*
D27*
X110880000Y-104000000D02*
X110400000Y-104000000D01*
X112430000Y-103950000D02*
X110930000Y-103950000D01*
X110930000Y-103950000D02*
X110880000Y-104000000D01*
X115370000Y-104900000D02*
X116990871Y-104900000D01*
X116990871Y-104900000D02*
X117160098Y-104730773D01*
X124800000Y-104799998D02*
X124300000Y-104299998D01*
X124300000Y-104299998D02*
X124300000Y-102200000D01*
X124300000Y-102200000D02*
X125300000Y-101200000D01*
X125300000Y-101200000D02*
X125750000Y-101200000D01*
X124800000Y-104400000D02*
X124800000Y-104799998D01*
X124800000Y-104700000D02*
X124800000Y-104799998D01*
X124900000Y-104600000D02*
X124800000Y-104700000D01*
X125600000Y-104600000D02*
X124900000Y-104600000D01*
X127950000Y-102900000D02*
X130400000Y-100450000D01*
X130400000Y-100450000D02*
X130716000Y-100134000D01*
X129400000Y-100900000D02*
X129950000Y-100900000D01*
X129950000Y-100900000D02*
X130400000Y-100450000D01*
D28*
X114850000Y-101800000D02*
X115800000Y-101800000D01*
X115800000Y-101800000D02*
X117100000Y-100500000D01*
X117100000Y-100500000D02*
X118200000Y-100500000D01*
X119750000Y-101960000D02*
X119660000Y-101960000D01*
X119660000Y-101960000D02*
X118200000Y-100500000D01*
D25*
X115370000Y-103950000D02*
X114350000Y-103950000D01*
X114350000Y-103950000D02*
X113900000Y-103500000D01*
X113900000Y-102525000D02*
X114625000Y-101800000D01*
X113900000Y-103500000D02*
X113900000Y-102525000D01*
X114625000Y-101800000D02*
X114850000Y-101800000D01*
D26*
X119750000Y-101960000D02*
X118560000Y-101960000D01*
X118560000Y-101960000D02*
X117100000Y-100500000D01*
D27*
X132456400Y-100134000D02*
X133920000Y-101597600D01*
X133920000Y-101597600D02*
X133920000Y-101750000D01*
X130716000Y-100134000D02*
X132456400Y-100134000D01*
X133920000Y-103260000D02*
X133960000Y-103300000D01*
X133920000Y-101750000D02*
X133920000Y-103260000D01*
D29*
X133960000Y-105000000D02*
X133960000Y-103300000D01*
D27*
X127800000Y-102900000D02*
X127950000Y-102900000D01*
X125600000Y-106400000D02*
X125600000Y-106600000D01*
X125600000Y-106600000D02*
X125000000Y-107200000D01*
X112430000Y-103000000D02*
X111859835Y-103000000D01*
X111859835Y-103000000D02*
X111432443Y-102572608D01*
X122290000Y-104500000D02*
X124190000Y-106400000D01*
X124190000Y-106400000D02*
X125600000Y-106400000D01*
X105300000Y-107200000D02*
X111055000Y-107200000D01*
X111055000Y-107200000D02*
X112430000Y-105825000D01*
X119750000Y-104500000D02*
X117850000Y-106400000D01*
X117850000Y-106400000D02*
X113005000Y-106400000D01*
X113005000Y-106400000D02*
X112430000Y-105825000D01*
X112430000Y-105825000D02*
X112430000Y-104900000D01*
X105300000Y-107200000D02*
X104500000Y-106400000D01*
X104500000Y-106400000D02*
X104500000Y-104000000D01*
X104500000Y-104000000D02*
X105200000Y-103300000D01*
X105200000Y-103500000D02*
X105200000Y-103300000D01*
X138473860Y-99500000D02*
X138473860Y-99326140D01*
X138473860Y-99326140D02*
X139000000Y-98800000D01*
D28*
X101100000Y-98900000D02*
X102000000Y-98900000D01*
X102000000Y-98900000D02*
X103100000Y-100000000D01*
D30*
X139000000Y-101750000D02*
X139000000Y-98800000D01*
D29*
X139040000Y-105000000D02*
X139040000Y-101790000D01*
X139040000Y-101790000D02*
X139000000Y-101750000D01*
D26*
X106002280Y-105600000D02*
X107700000Y-105600000D01*
X107700000Y-105600000D02*
X108000000Y-105300000D01*
D27*
X129700000Y-103582400D02*
X131380000Y-101902400D01*
X131380000Y-101902400D02*
X131380000Y-101750000D01*
X129700000Y-104650000D02*
X129700000Y-103582400D01*
X127800000Y-106400000D02*
X127950000Y-106400000D01*
X127950000Y-106400000D02*
X129700000Y-104650000D01*
D25*
X127000000Y-107400000D02*
X129172400Y-107400000D01*
X129172400Y-107400000D02*
X131420000Y-105152400D01*
X131420000Y-105152400D02*
X131420000Y-105000000D01*
X126700000Y-107100000D02*
X127000000Y-107400000D01*
X126700000Y-105550000D02*
X126700000Y-107100000D01*
X127650000Y-104600000D02*
X126700000Y-105550000D01*
D27*
X125600000Y-102900000D02*
X125950000Y-102900000D01*
X125950000Y-102900000D02*
X127650000Y-104600000D01*
X127650000Y-104600000D02*
X127800000Y-104600000D01*
X103000000Y-104650000D02*
X103000000Y-103300000D01*
D26*
X103000000Y-104650000D02*
X101450000Y-104650000D01*
X101450000Y-104650000D02*
X101000000Y-104200000D01*
D28*
X108000000Y-102760000D02*
X108000000Y-100100000D01*
X108000000Y-100100000D02*
X108100000Y-100000000D01*
D31*
G36*
X134162363Y-98714851D02*
X134065690Y-98948240D01*
X134065690Y-99214250D01*
X134224440Y-99373000D01*
X134999140Y-99373000D01*
X134999140Y-99353000D01*
X135253140Y-99353000D01*
X135253140Y-99373000D01*
X136027840Y-99373000D01*
X136186590Y-99214250D01*
X136186590Y-98948240D01*
X136089917Y-98714851D01*
X136085066Y-98710000D01*
X137528287Y-98710000D01*
X137450253Y-98826785D01*
X137400970Y-99074550D01*
X137400970Y-99925450D01*
X137450253Y-100173215D01*
X137590601Y-100383259D01*
X137601973Y-100390857D01*
X137538243Y-100486235D01*
X137520306Y-100576410D01*
X137362036Y-100399268D01*
X136834791Y-100145291D01*
X136819026Y-100142642D01*
X136587000Y-100263783D01*
X136587000Y-101623000D01*
X136607000Y-101623000D01*
X136607000Y-101877000D01*
X136587000Y-101877000D01*
X136587000Y-103236217D01*
X136819026Y-103357358D01*
X136834791Y-103354709D01*
X137362036Y-103100732D01*
X137405000Y-103052645D01*
X137405000Y-103652585D01*
X137402036Y-103649268D01*
X136874791Y-103395291D01*
X136859026Y-103392642D01*
X136627000Y-103513783D01*
X136627000Y-104873000D01*
X136647000Y-104873000D01*
X136647000Y-105127000D01*
X136627000Y-105127000D01*
X136627000Y-106486217D01*
X136859026Y-106607358D01*
X136874791Y-106604709D01*
X137402036Y-106350732D01*
X137560306Y-106173590D01*
X137578243Y-106263765D01*
X137718591Y-106473809D01*
X137928635Y-106614157D01*
X138176400Y-106663440D01*
X139903600Y-106663440D01*
X140151365Y-106614157D01*
X140290000Y-106521523D01*
X140290000Y-109290000D01*
X100710000Y-109290000D01*
X100710000Y-107635000D01*
X100714250Y-107635000D01*
X100873000Y-107476250D01*
X100873000Y-106527000D01*
X100853000Y-106527000D01*
X100853000Y-106273000D01*
X100873000Y-106273000D01*
X100873000Y-106253000D01*
X101127000Y-106253000D01*
X101127000Y-106273000D01*
X101147000Y-106273000D01*
X101147000Y-106527000D01*
X101127000Y-106527000D01*
X101127000Y-107476250D01*
X101285750Y-107635000D01*
X101576310Y-107635000D01*
X101809699Y-107538327D01*
X101824567Y-107523459D01*
X101973260Y-107585050D01*
X102714250Y-107585050D01*
X102873000Y-107426300D01*
X102873000Y-106677000D01*
X102853000Y-106677000D01*
X102853000Y-106423000D01*
X102873000Y-106423000D01*
X102873000Y-106403000D01*
X103127000Y-106403000D01*
X103127000Y-106423000D01*
X103147000Y-106423000D01*
X103147000Y-106677000D01*
X103127000Y-106677000D01*
X103127000Y-107426300D01*
X103285750Y-107585050D01*
X104026740Y-107585050D01*
X104260129Y-107488377D01*
X104263108Y-107485398D01*
X104638855Y-107861145D01*
X104942191Y-108063827D01*
X105300000Y-108135000D01*
X111055000Y-108135000D01*
X111412809Y-108063827D01*
X111716145Y-107861145D01*
X112447135Y-107130155D01*
X112647191Y-107263827D01*
X113005000Y-107335000D01*
X117850000Y-107335000D01*
X118207809Y-107263827D01*
X118352718Y-107167002D01*
X118416182Y-107167002D01*
X118295042Y-107399026D01*
X118467312Y-107814947D01*
X118861510Y-108246821D01*
X119390973Y-108494968D01*
X119623000Y-108374469D01*
X119623000Y-107167000D01*
X119603000Y-107167000D01*
X119603000Y-106913000D01*
X119623000Y-106913000D01*
X119623000Y-106893000D01*
X119877000Y-106893000D01*
X119877000Y-106913000D01*
X119897000Y-106913000D01*
X119897000Y-107167000D01*
X119877000Y-107167000D01*
X119877000Y-108374469D01*
X120109027Y-108494968D01*
X120638490Y-108246821D01*
X121020008Y-107828839D01*
X121200971Y-108099670D01*
X121687152Y-108424526D01*
X122260641Y-108538600D01*
X122319359Y-108538600D01*
X122892848Y-108424526D01*
X123379029Y-108099670D01*
X123650927Y-107692746D01*
X123782757Y-108011800D01*
X124186077Y-108415824D01*
X124713309Y-108634750D01*
X125284187Y-108635248D01*
X125811800Y-108417243D01*
X126215824Y-108013923D01*
X126279561Y-107860429D01*
X126409566Y-107990434D01*
X126680459Y-108171439D01*
X127000000Y-108235000D01*
X129172400Y-108235000D01*
X129491941Y-108171439D01*
X129762834Y-107990434D01*
X131128004Y-106625264D01*
X131420000Y-106683345D01*
X131993489Y-106569271D01*
X132479670Y-106244415D01*
X132671274Y-105957660D01*
X132803880Y-106156120D01*
X132871541Y-106201330D01*
X132900330Y-106244415D01*
X133386511Y-106569271D01*
X133960000Y-106683345D01*
X134533489Y-106569271D01*
X135019670Y-106244415D01*
X135048459Y-106201330D01*
X135116120Y-106156120D01*
X135247889Y-105958914D01*
X135597964Y-106350732D01*
X136125209Y-106604709D01*
X136140974Y-106607358D01*
X136373000Y-106486217D01*
X136373000Y-105127000D01*
X136353000Y-105127000D01*
X136353000Y-104873000D01*
X136373000Y-104873000D01*
X136373000Y-103513783D01*
X136140974Y-103392642D01*
X136125209Y-103395291D01*
X135597964Y-103649268D01*
X135595000Y-103652585D01*
X135595000Y-103300000D01*
X135554618Y-103096987D01*
X135557964Y-103100732D01*
X136085209Y-103354709D01*
X136100974Y-103357358D01*
X136333000Y-103236217D01*
X136333000Y-101877000D01*
X136313000Y-101877000D01*
X136313000Y-101623000D01*
X136333000Y-101623000D01*
X136333000Y-100263783D01*
X136140416Y-100163235D01*
X136186590Y-100051760D01*
X136186590Y-99785750D01*
X136027840Y-99627000D01*
X135253140Y-99627000D01*
X135253140Y-100401700D01*
X135411890Y-100560450D01*
X135413954Y-100560450D01*
X135186461Y-100815069D01*
X134979670Y-100505585D01*
X134929067Y-100471773D01*
X134999140Y-100401700D01*
X134999140Y-99627000D01*
X134224440Y-99627000D01*
X134065690Y-99785750D01*
X134065690Y-100051760D01*
X134085495Y-100099574D01*
X133920000Y-100066655D01*
X133745963Y-100101273D01*
X133117545Y-99472855D01*
X132814209Y-99270173D01*
X132456400Y-99199000D01*
X130716000Y-99199000D01*
X130358191Y-99270173D01*
X130054855Y-99472855D01*
X130054853Y-99472858D01*
X129952208Y-99575502D01*
X129686691Y-99465250D01*
X129115813Y-99464752D01*
X128588200Y-99682757D01*
X128184176Y-100086077D01*
X128141023Y-100190000D01*
X127935750Y-100190000D01*
X127777000Y-100348750D01*
X127777000Y-101073000D01*
X127797000Y-101073000D01*
X127797000Y-101327000D01*
X127777000Y-101327000D01*
X127777000Y-101347000D01*
X127523000Y-101347000D01*
X127523000Y-101327000D01*
X127503000Y-101327000D01*
X127503000Y-101073000D01*
X127523000Y-101073000D01*
X127523000Y-100348750D01*
X127364250Y-100190000D01*
X126923691Y-100190000D01*
X126690302Y-100286673D01*
X126689102Y-100287873D01*
X126597765Y-100226843D01*
X126350000Y-100177560D01*
X125150000Y-100177560D01*
X124902235Y-100226843D01*
X124692191Y-100367191D01*
X124551843Y-100577235D01*
X124539768Y-100637942D01*
X123718371Y-101459339D01*
X123703885Y-101386511D01*
X123379029Y-100900330D01*
X123325000Y-100864229D01*
X123325000Y-100707081D01*
X123448157Y-100522765D01*
X123497440Y-100275000D01*
X123497440Y-99525000D01*
X123448157Y-99277235D01*
X123307809Y-99067191D01*
X123097765Y-98926843D01*
X122850000Y-98877560D01*
X122313147Y-98877560D01*
X122250000Y-98864999D01*
X122186853Y-98877560D01*
X121650000Y-98877560D01*
X121402235Y-98926843D01*
X121310898Y-98987873D01*
X121309698Y-98986673D01*
X121076309Y-98890000D01*
X120635750Y-98890000D01*
X120477000Y-99048750D01*
X120477000Y-99773000D01*
X120497000Y-99773000D01*
X120497000Y-100027000D01*
X120477000Y-100027000D01*
X120477000Y-100047000D01*
X120223000Y-100047000D01*
X120223000Y-100027000D01*
X120203000Y-100027000D01*
X120203000Y-99773000D01*
X120223000Y-99773000D01*
X120223000Y-99048750D01*
X120064250Y-98890000D01*
X119623691Y-98890000D01*
X119390302Y-98986673D01*
X119211673Y-99165301D01*
X119118882Y-99389318D01*
X119013923Y-99284176D01*
X118486691Y-99065250D01*
X117915813Y-99064752D01*
X117461282Y-99252560D01*
X116650000Y-99252560D01*
X116402235Y-99301843D01*
X116192191Y-99442191D01*
X116051843Y-99652235D01*
X116002560Y-99900000D01*
X116002560Y-99992308D01*
X115329868Y-100665000D01*
X114850000Y-100665000D01*
X114415654Y-100751397D01*
X114376498Y-100777560D01*
X114250000Y-100777560D01*
X114002235Y-100826843D01*
X113910898Y-100887873D01*
X113909698Y-100886673D01*
X113676309Y-100790000D01*
X113235750Y-100790000D01*
X113077000Y-100948750D01*
X113077000Y-101673000D01*
X113097000Y-101673000D01*
X113097000Y-101927000D01*
X113077000Y-101927000D01*
X113077000Y-101947000D01*
X112823000Y-101947000D01*
X112823000Y-101927000D01*
X112803000Y-101927000D01*
X112803000Y-101673000D01*
X112823000Y-101673000D01*
X112823000Y-100948750D01*
X112664250Y-100790000D01*
X112223691Y-100790000D01*
X111990302Y-100886673D01*
X111811673Y-101065301D01*
X111772449Y-101159996D01*
X111719134Y-101137858D01*
X111148256Y-101137360D01*
X110620643Y-101355365D01*
X110216619Y-101758685D01*
X109997693Y-102285917D01*
X109997195Y-102856795D01*
X110215200Y-103384408D01*
X110618520Y-103788432D01*
X111145752Y-104007358D01*
X111236448Y-104007437D01*
X111132341Y-104077000D01*
X111053750Y-104077000D01*
X110895000Y-104235750D01*
X110895000Y-104401310D01*
X110909936Y-104437369D01*
X110882560Y-104575000D01*
X110882560Y-105225000D01*
X110931843Y-105472765D01*
X111072191Y-105682809D01*
X111178720Y-105753990D01*
X110667710Y-106265000D01*
X109335039Y-106265000D01*
X109557670Y-105931810D01*
X109683345Y-105300000D01*
X109557670Y-104668190D01*
X109331128Y-104329146D01*
X109473809Y-104233809D01*
X109614157Y-104023765D01*
X109663440Y-103776000D01*
X109663440Y-102049722D01*
X109698157Y-101997765D01*
X109747440Y-101750000D01*
X109747440Y-98710000D01*
X134167214Y-98710000D01*
X134162363Y-98714851D01*
X134162363Y-98714851D01*
G37*
X134162363Y-98714851D02*
X134065690Y-98948240D01*
X134065690Y-99214250D01*
X134224440Y-99373000D01*
X134999140Y-99373000D01*
X134999140Y-99353000D01*
X135253140Y-99353000D01*
X135253140Y-99373000D01*
X136027840Y-99373000D01*
X136186590Y-99214250D01*
X136186590Y-98948240D01*
X136089917Y-98714851D01*
X136085066Y-98710000D01*
X137528287Y-98710000D01*
X137450253Y-98826785D01*
X137400970Y-99074550D01*
X137400970Y-99925450D01*
X137450253Y-100173215D01*
X137590601Y-100383259D01*
X137601973Y-100390857D01*
X137538243Y-100486235D01*
X137520306Y-100576410D01*
X137362036Y-100399268D01*
X136834791Y-100145291D01*
X136819026Y-100142642D01*
X136587000Y-100263783D01*
X136587000Y-101623000D01*
X136607000Y-101623000D01*
X136607000Y-101877000D01*
X136587000Y-101877000D01*
X136587000Y-103236217D01*
X136819026Y-103357358D01*
X136834791Y-103354709D01*
X137362036Y-103100732D01*
X137405000Y-103052645D01*
X137405000Y-103652585D01*
X137402036Y-103649268D01*
X136874791Y-103395291D01*
X136859026Y-103392642D01*
X136627000Y-103513783D01*
X136627000Y-104873000D01*
X136647000Y-104873000D01*
X136647000Y-105127000D01*
X136627000Y-105127000D01*
X136627000Y-106486217D01*
X136859026Y-106607358D01*
X136874791Y-106604709D01*
X137402036Y-106350732D01*
X137560306Y-106173590D01*
X137578243Y-106263765D01*
X137718591Y-106473809D01*
X137928635Y-106614157D01*
X138176400Y-106663440D01*
X139903600Y-106663440D01*
X140151365Y-106614157D01*
X140290000Y-106521523D01*
X140290000Y-109290000D01*
X100710000Y-109290000D01*
X100710000Y-107635000D01*
X100714250Y-107635000D01*
X100873000Y-107476250D01*
X100873000Y-106527000D01*
X100853000Y-106527000D01*
X100853000Y-106273000D01*
X100873000Y-106273000D01*
X100873000Y-106253000D01*
X101127000Y-106253000D01*
X101127000Y-106273000D01*
X101147000Y-106273000D01*
X101147000Y-106527000D01*
X101127000Y-106527000D01*
X101127000Y-107476250D01*
X101285750Y-107635000D01*
X101576310Y-107635000D01*
X101809699Y-107538327D01*
X101824567Y-107523459D01*
X101973260Y-107585050D01*
X102714250Y-107585050D01*
X102873000Y-107426300D01*
X102873000Y-106677000D01*
X102853000Y-106677000D01*
X102853000Y-106423000D01*
X102873000Y-106423000D01*
X102873000Y-106403000D01*
X103127000Y-106403000D01*
X103127000Y-106423000D01*
X103147000Y-106423000D01*
X103147000Y-106677000D01*
X103127000Y-106677000D01*
X103127000Y-107426300D01*
X103285750Y-107585050D01*
X104026740Y-107585050D01*
X104260129Y-107488377D01*
X104263108Y-107485398D01*
X104638855Y-107861145D01*
X104942191Y-108063827D01*
X105300000Y-108135000D01*
X111055000Y-108135000D01*
X111412809Y-108063827D01*
X111716145Y-107861145D01*
X112447135Y-107130155D01*
X112647191Y-107263827D01*
X113005000Y-107335000D01*
X117850000Y-107335000D01*
X118207809Y-107263827D01*
X118352718Y-107167002D01*
X118416182Y-107167002D01*
X118295042Y-107399026D01*
X118467312Y-107814947D01*
X118861510Y-108246821D01*
X119390973Y-108494968D01*
X119623000Y-108374469D01*
X119623000Y-107167000D01*
X119603000Y-107167000D01*
X119603000Y-106913000D01*
X119623000Y-106913000D01*
X119623000Y-106893000D01*
X119877000Y-106893000D01*
X119877000Y-106913000D01*
X119897000Y-106913000D01*
X119897000Y-107167000D01*
X119877000Y-107167000D01*
X119877000Y-108374469D01*
X120109027Y-108494968D01*
X120638490Y-108246821D01*
X121020008Y-107828839D01*
X121200971Y-108099670D01*
X121687152Y-108424526D01*
X122260641Y-108538600D01*
X122319359Y-108538600D01*
X122892848Y-108424526D01*
X123379029Y-108099670D01*
X123650927Y-107692746D01*
X123782757Y-108011800D01*
X124186077Y-108415824D01*
X124713309Y-108634750D01*
X125284187Y-108635248D01*
X125811800Y-108417243D01*
X126215824Y-108013923D01*
X126279561Y-107860429D01*
X126409566Y-107990434D01*
X126680459Y-108171439D01*
X127000000Y-108235000D01*
X129172400Y-108235000D01*
X129491941Y-108171439D01*
X129762834Y-107990434D01*
X131128004Y-106625264D01*
X131420000Y-106683345D01*
X131993489Y-106569271D01*
X132479670Y-106244415D01*
X132671274Y-105957660D01*
X132803880Y-106156120D01*
X132871541Y-106201330D01*
X132900330Y-106244415D01*
X133386511Y-106569271D01*
X133960000Y-106683345D01*
X134533489Y-106569271D01*
X135019670Y-106244415D01*
X135048459Y-106201330D01*
X135116120Y-106156120D01*
X135247889Y-105958914D01*
X135597964Y-106350732D01*
X136125209Y-106604709D01*
X136140974Y-106607358D01*
X136373000Y-106486217D01*
X136373000Y-105127000D01*
X136353000Y-105127000D01*
X136353000Y-104873000D01*
X136373000Y-104873000D01*
X136373000Y-103513783D01*
X136140974Y-103392642D01*
X136125209Y-103395291D01*
X135597964Y-103649268D01*
X135595000Y-103652585D01*
X135595000Y-103300000D01*
X135554618Y-103096987D01*
X135557964Y-103100732D01*
X136085209Y-103354709D01*
X136100974Y-103357358D01*
X136333000Y-103236217D01*
X136333000Y-101877000D01*
X136313000Y-101877000D01*
X136313000Y-101623000D01*
X136333000Y-101623000D01*
X136333000Y-100263783D01*
X136140416Y-100163235D01*
X136186590Y-100051760D01*
X136186590Y-99785750D01*
X136027840Y-99627000D01*
X135253140Y-99627000D01*
X135253140Y-100401700D01*
X135411890Y-100560450D01*
X135413954Y-100560450D01*
X135186461Y-100815069D01*
X134979670Y-100505585D01*
X134929067Y-100471773D01*
X134999140Y-100401700D01*
X134999140Y-99627000D01*
X134224440Y-99627000D01*
X134065690Y-99785750D01*
X134065690Y-100051760D01*
X134085495Y-100099574D01*
X133920000Y-100066655D01*
X133745963Y-100101273D01*
X133117545Y-99472855D01*
X132814209Y-99270173D01*
X132456400Y-99199000D01*
X130716000Y-99199000D01*
X130358191Y-99270173D01*
X130054855Y-99472855D01*
X130054853Y-99472858D01*
X129952208Y-99575502D01*
X129686691Y-99465250D01*
X129115813Y-99464752D01*
X128588200Y-99682757D01*
X128184176Y-100086077D01*
X128141023Y-100190000D01*
X127935750Y-100190000D01*
X127777000Y-100348750D01*
X127777000Y-101073000D01*
X127797000Y-101073000D01*
X127797000Y-101327000D01*
X127777000Y-101327000D01*
X127777000Y-101347000D01*
X127523000Y-101347000D01*
X127523000Y-101327000D01*
X127503000Y-101327000D01*
X127503000Y-101073000D01*
X127523000Y-101073000D01*
X127523000Y-100348750D01*
X127364250Y-100190000D01*
X126923691Y-100190000D01*
X126690302Y-100286673D01*
X126689102Y-100287873D01*
X126597765Y-100226843D01*
X126350000Y-100177560D01*
X125150000Y-100177560D01*
X124902235Y-100226843D01*
X124692191Y-100367191D01*
X124551843Y-100577235D01*
X124539768Y-100637942D01*
X123718371Y-101459339D01*
X123703885Y-101386511D01*
X123379029Y-100900330D01*
X123325000Y-100864229D01*
X123325000Y-100707081D01*
X123448157Y-100522765D01*
X123497440Y-100275000D01*
X123497440Y-99525000D01*
X123448157Y-99277235D01*
X123307809Y-99067191D01*
X123097765Y-98926843D01*
X122850000Y-98877560D01*
X122313147Y-98877560D01*
X122250000Y-98864999D01*
X122186853Y-98877560D01*
X121650000Y-98877560D01*
X121402235Y-98926843D01*
X121310898Y-98987873D01*
X121309698Y-98986673D01*
X121076309Y-98890000D01*
X120635750Y-98890000D01*
X120477000Y-99048750D01*
X120477000Y-99773000D01*
X120497000Y-99773000D01*
X120497000Y-100027000D01*
X120477000Y-100027000D01*
X120477000Y-100047000D01*
X120223000Y-100047000D01*
X120223000Y-100027000D01*
X120203000Y-100027000D01*
X120203000Y-99773000D01*
X120223000Y-99773000D01*
X120223000Y-99048750D01*
X120064250Y-98890000D01*
X119623691Y-98890000D01*
X119390302Y-98986673D01*
X119211673Y-99165301D01*
X119118882Y-99389318D01*
X119013923Y-99284176D01*
X118486691Y-99065250D01*
X117915813Y-99064752D01*
X117461282Y-99252560D01*
X116650000Y-99252560D01*
X116402235Y-99301843D01*
X116192191Y-99442191D01*
X116051843Y-99652235D01*
X116002560Y-99900000D01*
X116002560Y-99992308D01*
X115329868Y-100665000D01*
X114850000Y-100665000D01*
X114415654Y-100751397D01*
X114376498Y-100777560D01*
X114250000Y-100777560D01*
X114002235Y-100826843D01*
X113910898Y-100887873D01*
X113909698Y-100886673D01*
X113676309Y-100790000D01*
X113235750Y-100790000D01*
X113077000Y-100948750D01*
X113077000Y-101673000D01*
X113097000Y-101673000D01*
X113097000Y-101927000D01*
X113077000Y-101927000D01*
X113077000Y-101947000D01*
X112823000Y-101947000D01*
X112823000Y-101927000D01*
X112803000Y-101927000D01*
X112803000Y-101673000D01*
X112823000Y-101673000D01*
X112823000Y-100948750D01*
X112664250Y-100790000D01*
X112223691Y-100790000D01*
X111990302Y-100886673D01*
X111811673Y-101065301D01*
X111772449Y-101159996D01*
X111719134Y-101137858D01*
X111148256Y-101137360D01*
X110620643Y-101355365D01*
X110216619Y-101758685D01*
X109997693Y-102285917D01*
X109997195Y-102856795D01*
X110215200Y-103384408D01*
X110618520Y-103788432D01*
X111145752Y-104007358D01*
X111236448Y-104007437D01*
X111132341Y-104077000D01*
X111053750Y-104077000D01*
X110895000Y-104235750D01*
X110895000Y-104401310D01*
X110909936Y-104437369D01*
X110882560Y-104575000D01*
X110882560Y-105225000D01*
X110931843Y-105472765D01*
X111072191Y-105682809D01*
X111178720Y-105753990D01*
X110667710Y-106265000D01*
X109335039Y-106265000D01*
X109557670Y-105931810D01*
X109683345Y-105300000D01*
X109557670Y-104668190D01*
X109331128Y-104329146D01*
X109473809Y-104233809D01*
X109614157Y-104023765D01*
X109663440Y-103776000D01*
X109663440Y-102049722D01*
X109698157Y-101997765D01*
X109747440Y-101750000D01*
X109747440Y-98710000D01*
X134167214Y-98710000D01*
X134162363Y-98714851D01*
M02*
