M48
;DRILL file {KiCad 4.1.0-alpha+201608181240+7066~46~ubuntu14.04.1-product} date Fri Aug 19 15:46:52 2016
;FORMAT={-:-/ absolute / metric / decimal}
FMAT,2
METRIC,TZ
T1C0.600
T2C1.016
%
G90
G05
M71
T1
X101.1Y-98.9
X101.1Y-98.9
X111.432Y-102.573
X117.16Y-104.731
X118.2Y-100.5
X124.8Y-104.8
X125.Y-107.2
X129.4Y-100.9
X133.96Y-103.3
X139.Y-98.8
T2
X108.Y-102.76
X108.Y-105.3
X131.38Y-101.75
X131.42Y-105.
X133.92Y-101.75
X133.96Y-105.
X136.46Y-101.75
X136.5Y-105.
X139.Y-101.75
X139.04Y-105.
T0
M30
